<?xml version="1.0" encoding="utf-8"?><svg xml:space="preserve" viewBox="0 0 128 128" y="0px" x="0px" xmlns:xlink="http://www.w3.org/1999/xlink" xmlns="http://www.w3.org/2000/svg" id="圖層_1" version="1.1" width="200px" height="200px" style="width:100%;height:100%;background-size:initial;background-repeat-y:initial;background-repeat-x:initial;background-position-y:initial;background-position-x:initial;background-origin:initial;background-image:initial;background-color:rgb(255, 255, 255);background-clip:initial;background-attachment:initial;animation-play-state:paused" ><g class="ldl-scale" style="transform-origin:50% 50%;transform:rotate(0deg) scale(0.8, 0.8);animation-play-state:paused" ><style type="text/css" style="animation-play-state:paused" >.st0{fill:none}.st1{fill:#333}.st2{fill:none;stroke:#333;stroke-width:3;stroke-linecap:round;stroke-miterlimit:10}</style>
<path d="z" class="st0" style="animation-play-state:paused" ></path>
<g style="animation-play-state:paused" ><g style="animation-play-state:paused" ><ellipse ry="9.2" rx="13.8" cy="98.9" cx="25.3" class="st1" transform="matrix(0.866 -0.5 0.5 0.866 -46.0729 25.9247)" style="fill:rgb(51, 51, 51);animation-play-state:paused" ></ellipse>
<path d="M36.6,93.8V50.9" class="st2" style="stroke:rgb(51, 51, 51);animation-play-state:paused" ></path></g>
<g style="animation-play-state:paused" ><ellipse ry="9.2" rx="13.8" cy="99.2" cx="62.5" class="st1" transform="matrix(0.866 -0.5 0.5 0.866 -41.2178 44.5294)" style="fill:rgb(51, 51, 51);animation-play-state:paused" ></ellipse>
<path d="M73.7,94V51.2" class="st2" style="stroke:rgb(51, 51, 51);animation-play-state:paused" ></path></g>
<g style="animation-play-state:paused" ><ellipse ry="9.2" rx="13.8" cy="98" cx="99.6" class="st1" transform="matrix(0.866 -0.5 0.5 0.866 -35.6756 62.9162)" style="fill:rgb(51, 51, 51);animation-play-state:paused" ></ellipse>
<path d="M110.8,92.9V50" class="st2" style="stroke:rgb(51, 51, 51);animation-play-state:paused" ></path></g></g>
<g style="animation-play-state:paused" ><g style="animation-play-state:paused" ><path d="M36.6,42.9c5.1-4.2,11-7.6,17.3-9.9c6.3-2.3,13.1-3.6,19.8-3.6s13.6,1.3,19.8,3.6c6.3,2.3,12.2,5.6,17.3,9.9 c-6.1-2.3-12.3-4.5-18.4-6S80,34.6,73.7,34.6S61.2,35.3,55,36.9C48.9,38.3,42.8,40.6,36.6,42.9z" class="st1" style="fill:rgb(51, 51, 51);animation-play-state:paused" ></path></g>
<path d="M75.6,15.5c2.7,0.8,4.1,2,4.1,4c0,1.3-0.6,2.2-1.8,2.9c-1.2,0.8-2.6,1.2-4.2,1.2c-1.3,0-2.3-0.3-3.1-0.6 c-0.8-0.4-1.3-1-1.3-1.7c0-0.4,0.1-0.6,0.5-0.9c0.4-0.3,0.8-0.4,1.3-0.4s0.9,0.1,1.2,0.3c0.3,0.3,0.5,0.5,0.5,0.8 c0,0.4-0.1,0.6-0.5,0.9L72.2,22c0,0.1,0.1,0.3,0.4,0.3c0.3,0,0.6,0.1,1,0.1c1.9,0,2.8-1,2.8-3.2c0-0.8-0.1-1.4-0.4-1.9 c-0.3-0.5-0.5-0.6-0.9-0.9c-0.4-0.3-0.9-0.3-1.5-0.4c-0.4,0-0.5-0.1-0.5-0.3v-0.6c0-0.1,0.1-0.3,0.5-0.3c1.7-0.1,2.6-1,2.6-2.8 c0-1.5-0.8-2.3-2.2-2.3c-0.4,0-0.6,0-1,0.1c-0.4,0.1-0.4,0.3-0.4,0.4s0.1,0.1,0.3,0.3c0.3,0.1,0.3,0.4,0.3,0.6 c0,0.3-0.1,0.5-0.5,0.6c-0.3,0.3-0.6,0.3-1,0.3c-0.5,0-0.9-0.1-1.2-0.4c-0.3-0.3-0.4-0.5-0.4-0.8c0-0.5,0.4-1,1.3-1.5 c0.9-0.5,1.9-0.6,2.9-0.6c1.4,0,2.7,0.3,3.6,0.9c0.9,0.6,1.4,1.4,1.4,2.3C79.2,13.4,78.1,14.6,75.6,15.5z" style="animation-play-state:paused" ></path></g>
<path d="z" class="st0" style="animation-play-state:paused" ></path>
<metadata xmlns:d="https://loading.io/stock/" style="animation-play-state:paused" ><d:name style="animation-play-state:paused" >triplet note</d:name>


<d:tags style="animation-play-state:paused" >triplet note,quarter,crotchet</d:tags>


<d:license style="animation-play-state:paused" >by</d:license>


<d:slug style="animation-play-state:paused" >meofli</d:slug></metadata></g><!-- generated by https://loading.io/ --></svg>