<svg xmlns="http://www.w3.org/2000/svg" viewBox="0 0 581 1000"><path d="M109 938C48 938 0 903 0 844c0-97 99-188 222-188 33 0 61 9 80 26V-72s11-1 17-1 18 2 20 13c17 106 73 122 127 180 72 78 98 106 108 174 2 12 3 23 3 36 0 61-22 121-25 127-1 3-1 5-1 7 0 4 1 6 1 9 18 37 29 78 29 120v22c0 48-3 105-7 110-6 13-13 17-20 17-14 0-22-13-22-26 0-3 0-5 1-9 5-30 8-60 8-89 0-52-9-101-32-149-60-122-122-139-177-143v424c0 95-123 188-223 188zm233-782c0 1 0 2 1 3 21 82 67 106 114 160 21 24 38 44 54 69 2 3 4 4 7 4 5 0 12-3 13-6 5-8 5-18 7-26 1-7 1-13 1-20 0-32-9-63-27-89-33-49-87-105-148-105h-8c-8 0-14 6-14 10z"/></svg>