<svg xmlns="http://www.w3.org/2000/svg" viewBox="0 0 563 1000"><path d="M109 938C48 938 0 903 0 844c0-97 99-188 222-188 32 0 60 9 80 26v-893s6-12 12-12 19 10 20 19c17 100 71 116 121 170 67 73 90 100 101 161 2 9 2 18 2 28 0 39-11 80-20 106 14 29 21 61 21 93 0 57-21 112-23 119-1 2-1 4-1 6 0 3 0 5 1 7 19 45 27 93 27 141 0 43-4 89-7 95-7 11-14 16-20 16-2 0-4-1-6-2-7-3-13-12-13-24 0-2 1-4 1-7 5-29 8-57 8-85 0-48-9-93-31-137-55-112-112-129-164-133v400c0 95-123 188-222 188zm401-831C455 14 396-10 341-10c16 97 65 114 114 168 23 25 41 44 55 62 5-17 10-34 12-44 1-7 3-13 3-21 0-13-4-28-15-48zm-170 87c20 77 64 98 107 149l5 5c17 20 31 37 46 59 1 3 4 4 7 4 5 0 10-3 11-6 3-7 3-15 5-23 1-8 2-16 2-24 0-81-90-177-170-177-6 1-13 12-13 13z"/></svg>