<svg xmlns="http://www.w3.org/2000/svg" viewBox="0 0 410 1000"><path d="M12 970C5 961 0 389 0 389c1-17 17-26 31-26 10 0 19 5 19 16 0 19-7 260-7 281 0 8 4 15 11 17 2 1 3 1 5 1 9 0 16-9 24-13 16-9 28-16 47-16h6c19 0 36 6 51 16-2-139-3-276-3-276 2-17 18-26 31-26 10 0 19 5 19 16 0 19-6 260-6 281 0 8 3 15 10 17 1 1 3 1 5 1 9 0 17-9 24-13 16-9 29-16 47-16h6c47 1 91 38 91 94 0 46-32 107-122 170-23 16-47 44-78 60 0 0-3 2-6 2-2 0-5-1-8-5-3-3-5-60-7-135-19 24-47 51-84 77-23 17-48 45-79 61 0 0-3 2-6 2s-6-1-9-5zm34-220c-1 4-2 16-2 32 0 39 3 98 3 98 0 6 3 16 11 16 2 0 6-1 9-3 45-28 90-78 90-134 0-25-10-59-40-59-24 0-65 30-71 50zm182 23c0 38 3 107 3 107 0 6 3 16 11 16 2 0 5-1 9-3 45-28 89-78 89-134 0-20-6-37-15-49-6-7-14-10-24-10-24 0-66 30-72 50-1 3-1 12-1 23z"/></svg>