<svg xmlns="http://www.w3.org/2000/svg" viewBox="0 0 251 1000"><path d="M0 877c0-18 2-35 5-38 6-5 25-7 43-7h10c14-5 46-21 46-34 0-7-36-27-47-33-3 0-6 1-10 1-17 0-35-4-42-10-3-3-5-21-5-39s2-35 5-37c6-5 24-7 41-7 16 0 32 2 36 7 5 4 8 22 8 39 4 14 20 47 34 47 12 0 28-36 33-47 0-18 1-36 5-39 5-5 23-7 41-7 41 0 44 6 44 47 0 16-2 31-7 36-7 6-22 10-38 10-4 0-8-1-12-1-14 5-47 20-47 34 0 7 36 27 47 33h10c17 0 35 2 40 7 4 5 7 23 7 40 0 36-7 46-45 46-17 0-33-4-40-10-4-3-5-20-5-38-4-14-21-46-34-46s-25 28-31 42c-1 1-2 3-2 4 0 16-2 33-8 38-6 7-22 10-37 10-17 0-33-4-40-10-3-2-5-20-5-38z"/></svg>