<svg xmlns="http://www.w3.org/2000/svg" viewBox="0 0 250 1000"><path d="M8 1009c-5 0-8-3-8-9v-71c0-6 5-14 12-16 0 0 21-9 27-11 6-3 11-12 11-23v-99c0-8-6-18-13-18-1 0-2 1-3 1-3 2-22 11-26 11-5 0-8-3-8-9v-71c0-6 5-14 12-16 0 0 20-8 26-11s12-13 12-27V505c0-6 6-11 16-11 7 0 14 5 14 11v120c0 8 3 20 12 20 17-4 51-18 63-25 9-6 12-19 13-29V461c0-6 6-11 16-11 8 0 14 5 14 11v122c0 8 7 13 14 13 5-1 25-9 25-9 2-1 3-1 5-1 4 0 7 3 7 8v71c0 6-5 14-12 17l-26 10c-8 3-13 22-13 29v93c0 12 7 18 13 18l26-10c2-1 3-1 5-1 4 0 7 3 7 8v71c0 6-5 14-12 17 0 0-21 8-28 11s-11 15-11 23v255l70-40-85 148-85-148 70 40V968c0-6-5-18-13-18-1 0-3 1-4 1l-61 25c-5 2-10 9-10 22v139c0 6-7 11-17 11-7 0-13-5-13-11v-123c0-5-5-16-12-16-1 0-2 0-3 1-9 3-23 9-23 9-1 0-3 1-4 1zm69-179c0 24 1 46 3 50 1 3 6 5 12 5 23 0 70-20 76-40 2-9 4-37 4-64s-2-52-4-57c-2-4-8-6-15-6-25 0-71 21-73 38-2 8-3 43-3 74z"/></svg>